<?xml version="1.0" standalone="no"?>
<!DOCTYPE svg PUBLIC "-//W3C//DTD SVG 20010904//EN"
 "http://www.w3.org/TR/2001/REC-SVG-20010904/DTD/svg10.dtd">
<svg version="1.0" xmlns="http://www.w3.org/2000/svg"
 width="160.000000pt" height="160.000000pt" viewBox="0 0 160.000000 160.000000"
 preserveAspectRatio="xMidYMid meet">
<metadata>
Created by potrace 1.14, written by Peter Selinger 2001-2017
</metadata>
<g transform="translate(0.000000,160.000000) scale(0.100000,-0.100000)"
fill="#000000" stroke="none">
<path d="M70 800 l0 -800 730 0 730 0 0 800 0 800 -730 0 -730 0 0 -800z
m1418 738 c9 -9 12 -189 12 -747 0 -669 -1 -736 -17 -753 -15 -17 -49 -18
-671 -18 -596 0 -657 2 -674 17 -17 15 -18 52 -18 749 0 653 2 734 16 748 14
14 89 16 678 16 501 0 665 -3 674 -12z"/>
<path d="M155 1508 c-3 -7 -4 -337 -3 -733 l3 -720 644 -3 c467 -1 648 1 657
9 19 16 21 1428 2 1447 -18 18 -1297 17 -1303 0z m123 -70 c9 -9 12 -168 12
-654 0 -573 -2 -643 -16 -655 -11 -9 -20 -10 -32 -2 -16 9 -17 65 -20 644 -1
349 0 644 3 657 6 24 34 29 53 10z m270 0 c8 -8 12 -50 12 -124 0 -89 3 -116
16 -128 13 -14 49 -16 233 -16 155 0 220 3 229 12 8 8 12 49 12 121 0 113 9
147 38 147 36 0 42 -21 42 -138 0 -130 -13 -172 -64 -200 -25 -14 -67 -17
-225 -20 -242 -5 -275 0 -318 43 l-33 33 0 134 c0 74 3 138 7 141 10 11 38 8
51 -5z m840 0 c16 -16 17 -1269 2 -1299 -14 -25 -46 -25 -60 0 -6 13 -10 236
-10 653 0 657 0 658 40 658 9 0 21 -5 28 -12z m-950 -116 c4 -41 -12 -62 -47
-62 -35 0 -51 17 -51 55 0 41 7 47 55 43 37 -3 40 -5 43 -36z m836 22 c10 -25
7 -59 -6 -72 -20 -20 -76 -15 -88 7 -13 26 -13 54 2 69 18 18 85 15 92 -4z
m-836 -172 c4 -41 -12 -62 -47 -62 -35 0 -51 17 -51 55 0 41 7 47 55 43 37 -3
40 -5 43 -36z m836 22 c10 -25 7 -59 -6 -72 -20 -20 -76 -15 -88 7 -13 26 -13
54 2 69 18 18 85 15 92 -4z m-836 -172 c4 -41 -12 -62 -47 -62 -35 0 -51 17
-51 55 0 41 7 47 55 43 37 -3 40 -5 43 -36z m836 22 c10 -25 7 -59 -6 -72 -20
-20 -76 -15 -88 7 -13 26 -13 54 2 69 18 18 85 15 92 -4z m-197 -20 c43 -32
52 -73 52 -242 1 -250 -4 -255 -287 -260 -232 -5 -273 0 -315 38 l-32 28 -3
190 -3 189 26 31 c15 18 41 36 58 41 18 6 132 9 254 8 208 -2 223 -3 250 -23z
m-649 -126 c7 -7 12 -24 12 -38 0 -33 -17 -50 -50 -50 -14 0 -31 5 -38 12 -13
13 -17 70 -5 81 11 12 68 8 81 -5z m840 0 c7 -7 12 -24 12 -38 0 -35 -17 -50
-57 -50 -22 0 -36 6 -43 19 -13 26 -13 54 2 69 16 16 70 16 86 0z m-840 -150
c7 -7 12 -24 12 -38 0 -33 -17 -50 -50 -50 -14 0 -31 5 -38 12 -13 13 -17 70
-5 81 11 12 68 8 81 -5z m840 0 c7 -7 12 -24 12 -38 0 -35 -17 -50 -57 -50
-22 0 -36 6 -43 19 -13 26 -13 54 2 69 16 16 70 16 86 0z m-840 -150 c7 -7 12
-24 12 -38 0 -14 -5 -31 -12 -38 -7 -7 -24 -12 -38 -12 -14 0 -31 5 -38 12
-13 13 -17 70 -5 81 11 12 68 8 81 -5z m840 0 c7 -7 12 -24 12 -38 0 -35 -17
-50 -57 -50 -42 0 -63 35 -45 75 9 19 19 25 45 25 18 0 38 -5 45 -12z m-191
-144 c40 -30 52 -74 52 -195 1 -116 -10 -147 -46 -135 -28 9 -33 32 -33 157 0
88 -3 108 -16 113 -9 3 -114 6 -234 6 -167 0 -220 -3 -228 -13 -7 -7 -13 -65
-14 -132 -3 -97 -6 -120 -20 -128 -12 -8 -21 -7 -32 2 -13 11 -16 37 -16 141
0 124 1 130 26 159 14 17 40 35 57 40 18 6 132 9 254 8 208 -2 223 -3 250 -23z
m-649 -6 c7 -7 12 -24 12 -38 0 -14 -5 -31 -12 -38 -7 -7 -24 -12 -38 -12 -14
0 -31 5 -38 12 -13 13 -17 70 -5 81 11 12 68 8 81 -5z m840 0 c7 -7 12 -24 12
-38 0 -35 -17 -50 -57 -50 -42 0 -63 35 -45 75 9 19 19 25 45 25 18 0 38 -5
45 -12z m-840 -150 c7 -7 12 -24 12 -38 0 -14 -5 -31 -12 -38 -15 -15 -61 -15
-76 0 -13 13 -17 70 -5 81 11 12 68 8 81 -5z m840 0 c7 -7 12 -24 12 -38 0
-35 -17 -50 -57 -50 -26 0 -36 6 -45 25 -18 40 3 75 45 75 18 0 38 -5 45 -12z"/>
<path d="M572 958 c-17 -17 -17 -329 0 -346 17 -17 449 -17 466 0 8 8 12 62
12 179 0 143 -2 168 -16 173 -31 12 -449 7 -462 -6z"/>
</g>
</svg>
